<svg width="38" height="38" viewBox="0 0 38 38" fill="none" xmlns="http://www.w3.org/2000/svg">
<path fill-rule="evenodd" clip-rule="evenodd" d="M37.848 1.992C37.848 0.892003 36.9559 0 35.856 0H1.992C0.892003 0 0 0.892003 0 1.992V35.856C0 36.956 0.892003 37.8479 1.992 37.8479H35.856C36.9559 37.8479 37.848 36.956 37.848 35.856V1.992V1.992Z" fill="#191B26"/>
<path d="M12.2081 8.51178C10.1634 8.56463 8.46507 9.28924 7.11213 10.6877C5.76017 12.0841 5.05762 13.8382 5.00645 15.9491V29.3968H7.86781V23.4209H12.2081C14.2527 23.366 15.956 22.6363 17.3187 21.2287C18.6805 19.8222 19.388 18.0619 19.4402 15.9491C19.388 13.8382 18.6805 12.0841 17.3187 10.6877C15.956 9.28924 14.2527 8.56463 12.2081 8.51178V8.51178ZM7.86781 20.4645V15.9491C7.89832 14.6736 8.31945 13.6146 9.13318 12.7752C9.9479 11.9347 10.9722 11.4987 12.2081 11.4672C13.4587 11.4987 14.4918 11.9347 15.3095 12.7752C16.1272 13.6146 16.5503 14.6736 16.5798 15.9491C16.5503 17.2418 16.1272 18.3099 15.3095 19.1545C14.4918 19.997 13.4587 20.434 12.2081 20.4645H7.86781Z" fill="white"/>
<path d="M25.216 17.8516H25.3183L29.3398 23.3884H32.8446L27.3807 15.7214L32.2257 8.48129H28.7209L25.3183 13.5913H25.216L21.8145 8.48129H18.3086L23.1536 15.7214L17.6897 23.3884H21.1956L25.216 17.8516V17.8516Z" fill="white"/>
</svg>
